<svg xmlns="http://www.w3.org/2000/svg" width="143" height="30" viewBox="0 0 143 30" fill="none">
  <path d="M142.967 14.994C142.967 25.158 136.039 29.988 127.39 29.988C118.825 29.988 111.813 25.158 111.813 14.994C111.813 4.746 118.909 0 127.096 0H127.39C136.039 0.125998 142.967 4.83 142.967 14.994ZM135.997 14.994C135.997 9.534 131.841 6.342 127.39 6.342C123.066 6.342 118.783 9.534 118.783 14.994C118.783 20.412 123.024 23.646 127.39 23.646C132.051 23.646 135.997 20.412 135.997 14.994Z" fill="black" style="fill:black;fill-opacity:1;"/>
  <path d="M95.5712 23.352H111.4V29.694H87.0479V0.293976H93.9757V21.756C93.9757 22.722 93.5138 23.772 92.842 24.444L92.884 24.486C93.5558 23.814 94.6055 23.352 95.5712 23.352Z" fill="black" style="fill:black;fill-opacity:1;"/>
  <path d="M68.7146 23.352H84.5435V29.694H60.1914V0.293976H67.1191V21.756C67.1191 22.722 66.6573 23.772 65.9855 24.444L66.0275 24.486C66.6993 23.814 67.7489 23.352 68.7146 23.352Z" fill="black" style="fill:black;fill-opacity:1;"/>
  <path d="M57.6552 0.293976V6.63598H38.0895V12.642H56.0597V17.934H38.0895V23.352H57.6552V29.694H31.1618V0.293976H57.6552Z" fill="black" style="fill:black;fill-opacity:1;"/>
  <path d="M21.707 11.508V0.293976H28.6347V29.694H21.707V18.438H6.92775V29.694H0V0.293976H6.92775V11.508H21.707Z" fill="black" style="fill:black;fill-opacity:1;"/>
</svg>