<svg xmlns="http://www.w3.org/2000/svg" width="18" height="18" viewBox="0 0 18 18" fill="none">
  <path d="M8.74856 15.3788C13.5626 15.3788 17.4185 13.0226 17.4185 8.06437C17.4185 3.10617 13.5626 0.811465 8.74856 0.75H8.58498C4.028 0.75 0.0786133 3.06519 0.0786133 8.06437C0.0786133 11.4832 1.93408 13.6648 4.6491 14.69C4.45356 15.7442 3.93935 16.897 3.62448 17.4887C3.5948 17.5445 3.57218 17.611 3.60681 17.6638C3.63782 17.7112 3.69466 17.7508 3.77735 17.7699C3.8521 17.7871 3.92946 17.7708 4.00188 17.7455C4.96798 17.4081 6.23947 16.5567 7.12577 15.2828C7.65183 15.3469 8.19435 15.3788 8.74856 15.3788Z" fill="black" style="fill:black;fill-opacity:1;"/>
  <path d="M7.49561 4.18262L8.56669 6.86119L11.2444 7.93262L8.56669 9.00405L7.49561 11.6826L6.42453 9.00405L3.74683 7.93262L6.42453 6.86119L7.49561 4.18262Z" fill="white" style="fill:white;fill-opacity:1;"/>
  <path d="M10.8695 3.05762L11.2979 4.12905L12.369 4.55762L11.2979 4.98619L10.8695 6.05762L10.4411 4.98619L9.37 4.55762L10.4411 4.12905L10.8695 3.05762Z" fill="white" style="fill:white;fill-opacity:1;"/>
  <path d="M10.8695 9.80762L11.2979 10.879L12.369 11.3076L11.2979 11.7362L10.8695 12.8076L10.4411 11.7362L9.37 11.3076L10.4411 10.879L10.8695 9.80762Z" fill="white" style="fill:white;fill-opacity:1;"/>
</svg>